<svg width="218" height="180" viewBox="0 0 218 180" fill="none" xmlns="http://www.w3.org/2000/svg">
<path d="M20.9276 168.763V162.461H26.5027V168.763H20.9276ZM32.4016 168.763V142.536H37.6373V147.675L37.0071 146.996C37.6535 145.348 38.6877 144.103 40.1098 143.263C41.5318 142.39 43.1801 141.954 45.0546 141.954C46.9938 141.954 48.7067 142.374 50.1934 143.215C51.6801 144.055 52.8436 145.218 53.6839 146.705C54.5242 148.192 54.9443 149.905 54.9443 151.844V168.763H49.5147V153.298C49.5147 151.973 49.2723 150.858 48.7875 149.953C48.3027 149.016 47.6078 148.305 46.7029 147.82C45.8303 147.303 44.8284 147.044 43.6972 147.044C42.566 147.044 41.548 147.303 40.643 147.82C39.7704 148.305 39.0917 149.016 38.6069 149.953C38.1221 150.89 37.8797 152.005 37.8797 153.298V168.763H32.4016ZM70.2121 169.345C67.5943 169.345 65.2673 168.747 63.2312 167.551C61.2274 166.323 59.6599 164.675 58.5287 162.606C57.3975 160.505 56.832 158.162 56.832 155.577C56.832 152.926 57.3975 150.583 58.5287 148.547C59.6922 146.511 61.2435 144.911 63.1827 143.748C65.1219 142.552 67.3196 141.954 69.7758 141.954C71.7473 141.954 73.5087 142.293 75.06 142.972C76.6114 143.651 77.9203 144.588 78.9868 145.784C80.0534 146.947 80.8613 148.289 81.4108 149.808C81.9925 151.327 82.2834 152.943 82.2834 154.656C82.2834 155.076 82.2672 155.512 82.2349 155.965C82.2026 156.417 82.138 156.837 82.041 157.225H61.1466V152.862H78.9384L76.3205 154.849C76.6437 153.266 76.5306 151.86 75.9811 150.632C75.464 149.371 74.656 148.386 73.5572 147.675C72.4907 146.931 71.2302 146.56 69.7758 146.56C68.3215 146.56 67.0287 146.931 65.8975 147.675C64.7663 148.386 63.8937 149.42 63.2797 150.777C62.6656 152.102 62.4232 153.718 62.5525 155.625C62.3909 157.403 62.6333 158.954 63.2797 160.279C63.9584 161.604 64.8956 162.638 66.0914 163.382C67.3196 164.125 68.7093 164.497 70.2606 164.497C71.8443 164.497 73.1855 164.141 74.2844 163.43C75.4155 162.719 76.3043 161.798 76.9507 160.667L81.4108 162.849C80.8937 164.077 80.0857 165.192 78.9868 166.194C77.9203 167.163 76.6275 167.939 75.1085 168.521C73.6218 169.07 71.9897 169.345 70.2121 169.345ZM96.065 169.054C93.3179 169.054 91.1848 168.278 89.6658 166.727C88.1468 165.175 87.3873 162.994 87.3873 160.182V147.481H82.7818V142.536H83.509C84.7371 142.536 85.6906 142.18 86.3693 141.469C87.048 140.758 87.3873 139.789 87.3873 138.561V136.524H92.8654V142.536H98.8283V147.481H92.8654V159.94C92.8654 160.845 93.0109 161.62 93.3018 162.267C93.5926 162.881 94.0613 163.366 94.7076 163.721C95.354 164.044 96.1943 164.206 97.2285 164.206C97.4871 164.206 97.778 164.19 98.1012 164.157C98.4244 164.125 98.7314 164.093 99.0223 164.06V168.763C98.5698 168.828 98.0688 168.892 97.5194 168.957C96.97 169.021 96.4852 169.054 96.065 169.054ZM107.81 168.763L98.7931 142.536H104.611L111.495 163.43H109.458L116.488 142.536H121.481L128.462 163.43H126.426L133.359 142.536H139.176L130.111 168.763H125.166L118.088 147.384H119.881L112.804 168.763H107.81ZM152.203 169.345C149.682 169.345 147.371 168.747 145.27 167.551C143.202 166.355 141.553 164.723 140.325 162.655C139.097 160.586 138.483 158.243 138.483 155.625C138.483 152.975 139.097 150.632 140.325 148.596C141.553 146.527 143.202 144.911 145.27 143.748C147.338 142.552 149.649 141.954 152.203 141.954C154.788 141.954 157.099 142.552 159.135 143.748C161.203 144.911 162.836 146.527 164.031 148.596C165.26 150.632 165.874 152.975 165.874 155.625C165.874 158.275 165.26 160.635 164.031 162.703C162.803 164.772 161.155 166.404 159.087 167.599C157.018 168.763 154.723 169.345 152.203 169.345ZM152.203 164.254C153.754 164.254 155.127 163.883 156.323 163.139C157.519 162.396 158.456 161.378 159.135 160.085C159.846 158.76 160.202 157.273 160.202 155.625C160.202 153.977 159.846 152.506 159.135 151.214C158.456 149.921 157.519 148.903 156.323 148.159C155.127 147.416 153.754 147.044 152.203 147.044C150.684 147.044 149.31 147.416 148.082 148.159C146.886 148.903 145.933 149.921 145.222 151.214C144.543 152.506 144.203 153.977 144.203 155.625C144.203 157.273 144.543 158.76 145.222 160.085C145.933 161.378 146.886 162.396 148.082 163.139C149.31 163.883 150.684 164.254 152.203 164.254ZM168.313 168.763V142.536H173.549V147.82L173.064 147.044C173.646 145.331 174.583 144.103 175.876 143.36C177.169 142.584 178.72 142.196 180.53 142.196H182.13V147.19H179.851C178.041 147.19 176.571 147.755 175.439 148.887C174.341 149.985 173.791 151.569 173.791 153.638V168.763H168.313ZM182.968 168.763V132.064H188.447V156.643L186.314 156.11L199.451 142.536H206.287L196.397 153.056L206.723 168.763H200.421L191.21 154.849L194.458 154.413L186.701 162.655L188.447 159.019V168.763H182.968Z" fill="white"/>
<path d="M111.292 64.5718C110.754 62.5791 109.963 60.8236 108.919 59.3053C107.876 57.7554 106.594 56.4427 105.076 55.3673C103.558 54.2918 101.818 53.4852 99.8571 52.9475C97.896 52.3782 95.7451 52.0935 93.4045 52.0935C88.6915 52.0935 84.6111 53.2322 81.1634 55.5096C77.7472 57.787 75.1061 61.1082 73.2399 65.4733C71.3736 69.8067 70.4405 75.0732 70.4405 81.2728C70.4405 87.5041 71.342 92.8181 73.145 97.2147C74.9479 101.611 77.5575 104.964 80.9736 107.273C84.3897 109.582 88.5333 110.737 93.4045 110.737C97.7062 110.737 101.344 110.041 104.317 108.649C107.322 107.226 109.599 105.217 111.149 102.624C112.699 100.03 113.474 96.9775 113.474 93.4665L117.839 93.9884H94.211V76.8604H136.106V89.7182C136.106 98.4167 134.256 105.866 130.555 112.065C126.886 118.265 121.825 123.025 115.372 126.347C108.951 129.668 101.565 131.328 93.2147 131.328C83.9469 131.328 75.802 129.32 68.7799 125.303C61.7579 121.286 56.2858 115.561 52.3636 108.127C48.4414 100.662 46.4803 91.8059 46.4803 81.5575C46.4803 73.5866 47.6664 66.5171 50.0387 60.3491C52.411 54.1495 55.7164 48.8988 59.955 44.597C64.2251 40.2952 69.1595 37.0373 74.7581 34.8231C80.3884 32.6089 86.4457 31.5019 92.93 31.5019C98.5603 31.5019 103.795 32.3085 108.635 33.9216C113.506 35.5348 117.808 37.8122 121.54 40.7539C125.304 43.6955 128.356 47.1907 130.697 51.2395C133.038 55.2882 134.493 59.7323 135.062 64.5718H111.292ZM173.596 131.328C166.51 131.328 160.216 130.047 154.712 127.485C149.208 124.923 144.859 121.396 141.664 116.905C138.501 112.413 136.856 107.257 136.73 101.437H159.504C159.694 105.012 161.149 107.89 163.869 110.073C166.589 112.224 169.831 113.299 173.596 113.299C176.537 113.299 179.147 112.651 181.424 111.354C183.702 110.057 185.489 108.238 186.786 105.897C188.082 103.525 188.715 100.805 188.683 97.7366C188.715 94.6052 188.067 91.8691 186.738 89.5285C185.441 87.1878 183.638 85.369 181.329 84.0722C179.052 82.7437 176.426 82.0794 173.453 82.0794C170.638 82.0478 167.965 82.6646 165.435 83.9298C162.936 85.1951 161.038 86.9189 159.741 89.1015L139.007 85.2109L143.23 32.8304H205.574V51.7614H162.541L160.311 74.6778H160.88C162.493 71.9892 165.087 69.7751 168.661 68.0354C172.267 66.2641 176.363 65.3784 180.95 65.3784C186.77 65.3784 191.957 66.7385 196.512 69.4588C201.098 72.1474 204.704 75.8798 207.33 80.656C209.987 85.4323 211.315 90.9044 211.315 97.0724C211.315 103.746 209.734 109.661 206.571 114.817C203.439 119.973 199.042 124.022 193.381 126.963C187.75 129.873 181.155 131.328 173.596 131.328Z" fill="url(#paint0_linear_4_3)"/>
<path d="M42.0615 32.8304V130H18.5757V32.8304H42.0615Z" fill="url(#paint1_linear_4_3)"/>
<rect x="0.829834" y="70.6594" width="50.1868" height="8.53608" transform="rotate(-24.4862 0.829834 70.6594)" fill="black"/>
<defs>
<linearGradient id="paint0_linear_4_3" x1="30.6742" y1="40.945" x2="264.793" y2="163.701" gradientUnits="userSpaceOnUse">
<stop stop-color="#00EAFF"/>
<stop offset="1" stop-color="#22F65B"/>
</linearGradient>
<linearGradient id="paint1_linear_4_3" x1="9.12928" y1="40.945" x2="74.0306" y2="48.4431" gradientUnits="userSpaceOnUse">
<stop stop-color="#00EAFF"/>
<stop offset="1" stop-color="#22F65B"/>
</linearGradient>
</defs>
</svg>
