<svg width="128" height="100" viewBox="0 0 128 100" fill="none" xmlns="http://www.w3.org/2000/svg">
<path d="M66.3378 47.209V79.8323C65.555 79.8323 64.1573 79.8323 62.1445 79.8323C60.1318 79.8323 57.7836 79.8323 55.0999 79.8323C52.4722 79.8323 49.7047 79.8323 46.7974 79.8323C43.8901 79.8323 41.0946 79.8323 38.4109 79.8323C35.7832 79.8323 33.4629 79.8323 31.4502 79.8323C29.4374 79.8323 28.0397 79.8323 27.2569 79.8323C26.9215 79.4968 26.1947 78.7979 25.0765 77.7357C23.9583 76.6175 22.7842 75.4434 21.5542 74.2134C20.3242 72.9833 19.1501 71.8372 18.0319 70.7749C16.9137 69.6567 16.1868 68.9299 15.8514 68.5944V30.9393H27.0892V20.7917H58.3706V32.8682C57.7556 32.8682 56.6654 32.8682 55.0999 32.8682C53.5345 32.8682 51.7174 32.8682 49.6487 32.8682C47.5801 32.8682 45.3996 32.8682 43.1073 32.8682C40.8709 32.8682 38.7184 32.8682 36.6498 32.8682C34.5811 32.8682 32.764 32.8682 31.1986 32.8682C29.6331 32.8682 28.5429 32.8682 27.9279 32.8682V63.3948C28.8783 64.3453 29.8008 65.2958 30.6954 66.2462C31.6459 67.1408 32.5963 68.0633 33.5468 69.0138H54.2613V47.209H66.3378Z" fill="white"/>
<path d="M71.608 61.3208V46.8502H74.0511V49.6692L73.6484 49.4276C74.0064 48.5148 74.5791 47.8078 75.3666 47.3066C76.172 46.7876 77.1117 46.5281 78.1856 46.5281C79.2236 46.5281 80.1454 46.7608 80.9508 47.2261C81.7741 47.6914 82.4184 48.3358 82.8838 49.1591C83.367 49.9824 83.6087 50.9131 83.6087 51.9512V61.3208H81.085V52.7566C81.085 51.9512 80.9419 51.2711 80.6555 50.7162C80.3691 50.1614 79.9575 49.7318 79.4205 49.4276C78.9015 49.1054 78.3019 48.9443 77.6218 48.9443C76.9416 48.9443 76.3331 49.1054 75.7962 49.4276C75.2771 49.7318 74.8655 50.1703 74.5612 50.7431C74.2569 51.2979 74.1048 51.9691 74.1048 52.7566V61.3208H71.608ZM92.2287 61.643C90.8326 61.643 89.5887 61.3119 88.4969 60.6496C87.4051 59.9874 86.546 59.0835 85.9196 57.9381C85.2932 56.7747 84.98 55.4771 84.98 54.0453C84.98 52.5955 85.2842 51.3069 85.8928 50.1793C86.5192 49.0517 87.3604 48.1657 88.4164 47.5214C89.4903 46.8592 90.6894 46.5281 92.0139 46.5281C93.0878 46.5281 94.0364 46.725 94.8597 47.1187C95.7009 47.4946 96.4079 48.0136 96.9806 48.6758C97.5712 49.3202 98.0187 50.0629 98.3229 50.9041C98.6451 51.7275 98.8062 52.5866 98.8062 53.4815C98.8062 53.6783 98.7883 53.9021 98.7525 54.1526C98.7346 54.3853 98.7078 54.609 98.672 54.8238H86.8056V52.6761H97.2222L96.0409 53.6425C96.202 52.7118 96.1125 51.8796 95.7725 51.1458C95.4324 50.412 94.9313 49.8303 94.269 49.4007C93.6068 48.9712 92.8551 48.7564 92.0139 48.7564C91.1727 48.7564 90.4031 48.9712 89.705 49.4007C89.007 49.8303 88.4611 50.4477 88.0674 51.2532C87.6915 52.0407 87.5394 52.9803 87.611 54.0721C87.5394 55.1281 87.7005 56.0588 88.0942 56.8642C88.5059 57.6517 89.0786 58.2692 89.8124 58.7166C90.5641 59.1462 91.3785 59.361 92.2555 59.361C93.222 59.361 94.0364 59.1372 94.6986 58.6898C95.3608 58.2423 95.8978 57.6696 96.3094 56.9716L98.4035 58.0455C98.1171 58.7077 97.6697 59.3162 97.0611 59.8711C96.4705 60.408 95.7635 60.8376 94.9402 61.1597C94.1348 61.4819 93.231 61.643 92.2287 61.643ZM106.33 61.4819C104.916 61.4819 103.825 61.0792 103.055 60.2738C102.303 59.4684 101.927 58.3318 101.927 56.8642V49.2396H99.2964V46.8502H99.8333C100.478 46.8502 100.988 46.6534 101.364 46.2596C101.739 45.8659 101.927 45.3468 101.927 44.7025V43.5212H104.424V46.8502H107.673V49.2396H104.424V56.7836C104.424 57.2669 104.496 57.6875 104.639 58.0455C104.8 58.4034 105.06 58.6898 105.417 58.9046C105.775 59.1014 106.25 59.1999 106.84 59.1999C106.966 59.1999 107.118 59.1909 107.297 59.173C107.494 59.1551 107.673 59.1372 107.834 59.1193V61.3208C107.601 61.3745 107.342 61.4103 107.055 61.4282C106.769 61.464 106.527 61.4819 106.33 61.4819Z" fill="white"/>
<path d="M74.9102 79.1208L69.9704 64.7308H72.2524L76.3331 77.3221H75.5277L79.3668 64.7308H81.3804L85.2195 77.3221H84.4141L88.5217 64.7308H90.7768L85.837 79.1208H83.8234L80.0917 66.798H80.6555L76.9238 79.1208H74.9102ZM98.0016 79.443C96.6414 79.443 95.4064 79.1208 94.2967 78.4765C93.187 77.8142 92.3011 76.9193 91.6389 75.7918C90.9945 74.6463 90.6724 73.3487 90.6724 71.8989C90.6724 70.4671 90.9945 69.1874 91.6389 68.0598C92.2832 66.9322 93.1513 66.0463 94.243 65.402C95.3527 64.7397 96.6056 64.4086 98.0016 64.4086C99.3977 64.4086 100.642 64.7308 101.733 65.3751C102.843 66.0194 103.711 66.9054 104.338 68.033C104.982 69.1605 105.304 70.4492 105.304 71.8989C105.304 73.3666 104.973 74.6731 104.311 75.8186C103.648 76.9462 102.762 77.8321 101.653 78.4765C100.561 79.1208 99.344 79.443 98.0016 79.443ZM98.0016 77.4294C98.9681 77.4294 99.8362 77.1878 100.606 76.7046C101.393 76.2213 102.011 75.5591 102.458 74.7179C102.924 73.8767 103.156 72.937 103.156 71.8989C103.156 70.8609 102.924 69.9302 102.458 69.1069C102.011 68.2835 101.393 67.6303 100.606 67.147C99.8362 66.6638 98.9681 66.4222 98.0016 66.4222C97.0351 66.4222 96.1581 66.6638 95.3706 67.147C94.601 67.6303 93.9835 68.2835 93.5182 69.1069C93.0528 69.9302 92.8201 70.8609 92.8201 71.8989C92.8201 72.937 93.0528 73.8767 93.5182 74.7179C93.9835 75.5591 94.601 76.2213 95.3706 76.7046C96.1581 77.1878 97.0351 77.4294 98.0016 77.4294ZM107.244 79.1208V64.7308H109.258V67.0933L108.989 66.7443C109.329 66.0642 109.84 65.5272 110.52 65.1335C111.218 64.7397 112.059 64.5429 113.043 64.5429H113.956V66.5564H112.694C111.656 66.5564 110.824 66.8786 110.198 67.5229C109.571 68.1672 109.258 69.08 109.258 70.2613V79.1208H107.244ZM114.705 79.1208V58.7976H116.718V73.0265L115.859 72.8923L123.94 64.7308H126.544L120.907 70.5029L127.055 79.1208H124.638L118.866 71.1472L120.155 71.2546L116.047 75.4965L116.718 73.8319V79.1208H114.705Z" fill="url(#paint0_linear_21_310)"/>
<rect x="62.25" y="19.8" width="27.225" height="22.275" rx="2.475" fill="url(#paint1_linear_21_310)"/>
<path d="M82.8154 25.8311L81.8665 28.5339H74.2037C73.9929 29.2336 73.8826 29.5786 73.8731 29.5691C73.8539 29.617 73.8443 29.6697 73.8443 29.7272C73.8443 30.0147 74.06 30.1585 74.4913 30.1585H79.71C80.2947 30.1585 80.7691 30.2975 81.1333 30.5754C81.5071 30.8438 81.694 31.232 81.694 31.74C81.694 32.0083 81.6365 32.3006 81.5215 32.6169C81.234 33.3933 80.8122 34.5242 80.2563 36.0098C80.103 36.4411 79.9209 36.7479 79.71 36.93C79.4512 37.1696 79.087 37.2894 78.6174 37.2894H68.9275L69.8907 34.5865H76.6622C77.2756 34.5865 77.6685 34.3757 77.841 33.954C77.9848 33.5898 78.0759 33.4172 78.1142 33.4364C78.1238 33.3981 78.1286 33.3597 78.1286 33.3214C78.1286 33.0243 77.8842 32.8757 77.3954 32.8757H72.1766C71.6015 32.8757 71.1367 32.7415 70.7821 32.4732C70.3987 32.1856 70.207 31.7831 70.207 31.2655C70.207 30.9972 70.2597 30.7096 70.3651 30.4029C70.7198 29.387 71.2229 27.863 71.8747 25.8311H82.8154Z" fill="black"/>
<path d="M0 21H11V42L0 32V21Z" fill="url(#paint2_linear_21_310)"/>
<path d="M11 46V79.4092L0 67.8438V36L11 46Z" fill="white"/>
<defs>
<linearGradient id="paint0_linear_21_310" x1="66.5635" y1="59.7142" x2="125.125" y2="107.655" gradientUnits="userSpaceOnUse">
<stop stop-color="#00EAFF"/>
<stop offset="1" stop-color="#22F65B"/>
</linearGradient>
<linearGradient id="paint1_linear_21_310" x1="60.7894" y1="25.4299" x2="94.9485" y2="45.4656" gradientUnits="userSpaceOnUse">
<stop stop-color="#00EAFF"/>
<stop offset="1" stop-color="#22F65B"/>
</linearGradient>
<linearGradient id="paint2_linear_21_310" x1="-0.590129" y1="26.3077" x2="16.8572" y2="30.6935" gradientUnits="userSpaceOnUse">
<stop stop-color="#00EAFF"/>
<stop offset="1" stop-color="#22F65B"/>
</linearGradient>
</defs>
</svg>
